<svg width="67" height="55" viewBox="0 0 67 55" fill="none" xmlns="http://www.w3.org/2000/svg">
<mask id="mask0_73_262" style="mask-type:alpha" maskUnits="userSpaceOnUse" x="-1" y="-1" width="68" height="56">
<path d="M66.1968 37.8676V35.5125C66.1968 35.5125 61.0457 25.3069 60.3098 25.2088C59.5739 25.1107 -0.277245 0.185547 -0.277245 0.185547L22.5349 44.5895L31.5616 54.2063L66.1968 37.8676Z" fill="white" stroke="#36B37E" stroke-width="0.598795" stroke-miterlimit="10"/>
</mask>
<g mask="url(#mask0_73_262)">
<path d="M41.043 26.0712L33.5371 26.3165L30.103 20.2324L22.8914 20.5759L26.2764 26.5128L19.1139 26.7581L22.4499 32.7931L29.6615 32.6459L37.1183 32.4496L40.7486 38.73L48.4508 38.6809L52.2773 45.1575H60.3719L56.3982 38.5828L52.5226 32.1062L44.7224 32.3025L41.043 26.0712Z" fill="#C5E9DA"/>
<path d="M37.4616 19.9371L33.9294 13.9512L26.6688 14.3437L30.1028 20.2315L37.4616 19.9371Z" fill="#36B37E"/>
<path d="M48.7453 25.7769L45.0168 19.5947L37.4619 19.9382L41.0431 26.0713L48.7453 25.7769Z" fill="#36B37E"/>
<path d="M52.7678 19.2503L48.9903 13.1172L41.3862 13.5097L45.0165 19.5938L52.7678 19.2503Z" fill="#36B37E"/>
<path d="M56.6434 25.531L48.7451 25.7764L52.5225 32.1058L60.5681 31.9586L68.8099 31.7623L64.7381 25.2857L60.7643 18.9072L52.7678 19.2507L56.6434 25.531Z" fill="#36B37E"/>
<path d="M15.876 20.8703L22.8913 20.5759L19.6044 14.6881L26.6688 14.3446L23.3329 8.50586L16.3666 8.94745L9.54748 9.38903L12.6872 15.0806L5.91716 15.424L-0.656655 15.7675L2.3359 21.4591L9.00783 21.1647L12.1476 27.0034L19.1138 26.7581L15.876 20.8703Z" fill="#172B4D"/>
<path d="M5.37747 27.1992L8.46814 33.087L15.3854 32.9398L12.1475 27.0029L5.37747 27.1992Z" fill="#36B37E"/>
<path d="M-0.0679492 4.28557L2.87555 9.82994L9.54749 9.38835L6.45681 3.79492L-0.0679492 4.28557Z" fill="#36B37E"/>
<path d="M33.9295 13.9516L41.3863 13.51L37.8051 7.57313L34.3219 1.73438L27.1104 2.27409L20.046 2.81381L23.3329 8.50537L30.4954 8.06378L33.9295 13.9516Z" fill="#36B37E"/>
<path d="M53.0132 6.5918L45.3111 7.08245L48.9904 13.1175L56.8398 12.7249L53.0132 6.5918Z" fill="#36B37E"/>
<path d="M68.9081 18.5635L64.8853 12.2832L56.8397 12.7248L60.7644 18.907L68.9081 18.5635Z" fill="#36B37E"/>
<path d="M15.3855 32.9392L18.6724 39.0233L25.8349 38.9251L22.4499 32.792L15.3855 32.9392Z" fill="#36B37E"/>
</g>
</svg>
